<?xml version="1.0" encoding="UTF-8" standalone="no"?>
<!-- Created with Inkscape (http://www.inkscape.org/) -->
<svg xmlns:dc="http://purl.org/dc/elements/1.1/" xmlns:cc="http://creativecommons.org/ns#" xmlns:rdf="http://www.w3.org/1999/02/22-rdf-syntax-ns#" xmlns:svg="http://www.w3.org/2000/svg" xmlns="http://www.w3.org/2000/svg" xmlns:sodipodi="http://sodipodi.sourceforge.net/DTD/sodipodi-0.dtd" xmlns:inkscape="http://www.inkscape.org/namespaces/inkscape" width="297mm" height="120mm" viewBox="0 0 297 120" version="1.1" id="svg8" sodipodi:docname="MicroDexed logo 1.5mm centered white.svg" inkscape:version="0.92.4 (5da689c313, 2019-01-14)">
  <defs id="defs2"/>
  
  
  <g inkscape:label="Calque 1" inkscape:groupmode="layer" id="layer1" transform="translate(0,-177)">
    <g id="g7431" transform="translate(-0.62168573,-0.493555)">
      <path inkscape:connector-curvature="0" id="path3743-2-6" d="m 6.2621514,227.54589 c 23.0803516,0 23.0803516,0 23.0803516,0" style="fill:none;stroke:#ffffff;stroke-width:1.5;stroke-linecap:butt;stroke-linejoin:round;stroke-miterlimit:4;stroke-dasharray:none;stroke-opacity:1"/>
      <path inkscape:connector-curvature="0" id="path3743-52" d="m 6.2621503,232.34487 c 23.0803537,0 23.0803537,0 23.0803537,0" style="fill:none;stroke:#ffffff;stroke-width:1.5;stroke-linecap:butt;stroke-linejoin:round;stroke-miterlimit:4;stroke-dasharray:none;stroke-opacity:1"/>
      <path inkscape:connector-curvature="0" id="path3743-2-0" d="m 6.2621514,237.14385 c 23.0803516,0 23.0803516,0 23.0803516,0" style="fill:none;stroke:#ffffff;stroke-width:1.5;stroke-linecap:butt;stroke-linejoin:round;stroke-miterlimit:4;stroke-dasharray:none;stroke-opacity:1"/>
      <path inkscape:connector-curvature="0" id="path3743-1" d="m 6.2621503,241.94283 c 23.0803537,0 23.0803537,0 23.0803537,0" style="fill:none;stroke:#ffffff;stroke-width:1.5;stroke-linecap:butt;stroke-linejoin:round;stroke-miterlimit:4;stroke-dasharray:none;stroke-opacity:1"/>
      <path sodipodi:nodetypes="ccc" inkscape:connector-curvature="0" id="path3743-2-06" d="m 6.3002103,246.78859 31.1425327,-0.0468 c 11.874882,0.0842 6.259411,-15.0646 15.625213,-15.70846" style="fill:none;stroke:#ffffff;stroke-width:1.5;stroke-linecap:butt;stroke-linejoin:round;stroke-miterlimit:4;stroke-dasharray:none;stroke-opacity:1"/>
      <path sodipodi:nodetypes="ccc" inkscape:connector-curvature="0" id="path3743-5-0" d="m 6.2621503,251.5408 26.9698017,-0.0165 c 11.907955,0.10074 6.292484,-15.04806 15.658286,-15.69192" style="fill:none;stroke:#ffffff;stroke-width:1.5;stroke-linecap:butt;stroke-linejoin:round;stroke-miterlimit:4;stroke-dasharray:none;stroke-opacity:1"/>
      <path sodipodi:nodetypes="ccc" inkscape:connector-curvature="0" id="path3743-2-6-0" d="m 6.2678848,256.29301 22.5682272,0.005 c 12.070461,0.0893 6.45499,-15.05945 15.820792,-15.70331" style="fill:none;stroke:#ffffff;stroke-width:1.5;stroke-linecap:butt;stroke-linejoin:round;stroke-miterlimit:4;stroke-dasharray:none;stroke-opacity:1"/>
      <path inkscape:connector-curvature="0" id="path3743-52-8" d="m 6.2621503,261.13876 c 23.0803537,0 23.0803537,0 23.0803537,0" style="fill:none;stroke:#ffffff;stroke-width:1.5;stroke-linecap:butt;stroke-linejoin:round;stroke-miterlimit:4;stroke-dasharray:none;stroke-opacity:1"/>
      <path inkscape:connector-curvature="0" id="path3743-2-0-6" d="m 6.2621514,265.93774 c 23.0803516,0 23.0803516,0 23.0803516,0" style="fill:none;stroke:#ffffff;stroke-width:1.5;stroke-linecap:butt;stroke-linejoin:round;stroke-miterlimit:4;stroke-dasharray:none;stroke-opacity:1"/>
      <path inkscape:connector-curvature="0" id="path3743-2-8" d="m 6.2621514,275.53571 c 23.0803516,0 23.0803516,0 23.0803516,0" style="fill:none;stroke:#ffffff;stroke-width:1.5;stroke-linecap:butt;stroke-linejoin:round;stroke-miterlimit:4;stroke-dasharray:none;stroke-opacity:1"/>
      <path inkscape:connector-curvature="0" id="path3743-2-6-02" d="m 79.12041,227.51374 c 24.70231,0 24.70231,0 24.70231,0" style="fill:none;stroke:#ffffff;stroke-width:1.5;stroke-linecap:butt;stroke-linejoin:round;stroke-miterlimit:4;stroke-dasharray:none;stroke-opacity:1"/>
      <path inkscape:connector-curvature="0" id="path3743-52-88" d="m 82.538482,232.31272 c 23.683688,0 23.683688,0 23.683688,0" style="fill:none;stroke:#ffffff;stroke-width:1.5;stroke-linecap:butt;stroke-linejoin:round;stroke-miterlimit:4;stroke-dasharray:none;stroke-opacity:1"/>
      <path inkscape:connector-curvature="0" id="path3743-2-0-3" d="m 85.758153,237.1117 c 22.863517,0 22.863517,0 22.863517,0" style="fill:none;stroke:#ffffff;stroke-width:1.5;stroke-linecap:butt;stroke-linejoin:round;stroke-miterlimit:4;stroke-dasharray:none;stroke-opacity:1"/>
      <path inkscape:connector-curvature="0" id="path3743-1-5" d="m 87.115222,241.91069 c 22.706188,0 22.706188,0 22.706188,0" style="fill:none;stroke:#ffffff;stroke-width:1.5;stroke-linecap:butt;stroke-linejoin:round;stroke-miterlimit:4;stroke-dasharray:none;stroke-opacity:1"/>
      <path inkscape:connector-curvature="0" id="path3743-52-8-5" d="m 86.741044,261.10661 c 23.080366,0 23.080366,0 23.080366,0" style="fill:none;stroke:#ffffff;stroke-width:1.5;stroke-linecap:butt;stroke-linejoin:round;stroke-miterlimit:4;stroke-dasharray:none;stroke-opacity:1"/>
      <path inkscape:connector-curvature="0" id="path3743-8" d="m 100.12028,213.19177 c 25.4012,0 25.4012,0 25.4012,0" style="fill:none;stroke:#ffffff;stroke-width:1.5;stroke-linecap:butt;stroke-linejoin:round;stroke-miterlimit:4;stroke-dasharray:none;stroke-opacity:1"/>
      <path inkscape:connector-curvature="0" id="path3743-2-63" d="m 104.74159,217.99075 c 25.40124,0 25.40124,0 25.40124,0" style="fill:none;stroke:#ffffff;stroke-width:1.5;stroke-linecap:butt;stroke-linejoin:round;stroke-miterlimit:4;stroke-dasharray:none;stroke-opacity:1"/>
      <path inkscape:connector-curvature="0" id="path3743-5-9" d="m 109.36291,222.78973 c 25.40125,0 25.40125,0 25.40125,0" style="fill:none;stroke:#ffffff;stroke-width:1.5;stroke-linecap:butt;stroke-linejoin:round;stroke-miterlimit:4;stroke-dasharray:none;stroke-opacity:1"/>
      <path inkscape:connector-curvature="0" id="path3743-2-6-7" d="m 113.98423,227.58872 c 25.40126,0 25.40126,0 25.40126,0" style="fill:none;stroke:#ffffff;stroke-width:1.5;stroke-linecap:butt;stroke-linejoin:round;stroke-miterlimit:4;stroke-dasharray:none;stroke-opacity:1"/>
      <path inkscape:connector-curvature="0" id="path3743-52-5" d="m 118.31057,232.3877 c 25.40128,0 25.40128,0 25.40128,0" style="fill:none;stroke:#ffffff;stroke-width:1.5;stroke-linecap:butt;stroke-linejoin:round;stroke-miterlimit:4;stroke-dasharray:none;stroke-opacity:1"/>
      <path inkscape:connector-curvature="0" id="path3743-2-0-9" d="m 122.85817,237.18668 c 25.40126,0 25.40126,0 25.40126,0" style="fill:none;stroke:#ffffff;stroke-width:1.5;stroke-linecap:butt;stroke-linejoin:round;stroke-miterlimit:4;stroke-dasharray:none;stroke-opacity:1"/>
      <path inkscape:connector-curvature="0" id="path3743-2-06-5" d="m 131.93492,246.85839 c 34.10417,0 34.10417,0 34.10417,0" style="fill:none;stroke:#ffffff;stroke-width:1.5;stroke-linecap:butt;stroke-linejoin:round;stroke-miterlimit:4;stroke-dasharray:none;stroke-opacity:1"/>
      <path inkscape:connector-curvature="0" id="path3743-5-0-2" d="m 136.24843,251.54675 c 25.40128,0 25.40128,0 25.40128,0" style="fill:none;stroke:#ffffff;stroke-width:1.5;stroke-linecap:butt;stroke-linejoin:round;stroke-miterlimit:4;stroke-dasharray:none;stroke-opacity:1"/>
      <path inkscape:connector-curvature="0" id="path3743-8-3" d="m 197.73601,289.97548 c -25.40127,0 -25.40127,0 -25.40127,0" style="fill:none;stroke:#ffffff;stroke-width:1.5;stroke-linecap:butt;stroke-linejoin:round;stroke-miterlimit:4;stroke-dasharray:none;stroke-opacity:1"/>
      <path inkscape:connector-curvature="0" id="path3743-2-63-1" d="m 193.37543,285.1765 c -25.40129,0 -25.40129,0 -25.40129,0" style="fill:none;stroke:#ffffff;stroke-width:1.5;stroke-linecap:butt;stroke-linejoin:round;stroke-miterlimit:4;stroke-dasharray:none;stroke-opacity:1"/>
      <path inkscape:connector-curvature="0" id="path3743-5-9-2" d="m 188.85836,280.41663 c -25.40127,0 -25.40127,0 -25.40127,0" style="fill:none;stroke:#ffffff;stroke-width:1.5;stroke-linecap:butt;stroke-linejoin:round;stroke-miterlimit:4;stroke-dasharray:none;stroke-opacity:1"/>
      <path inkscape:connector-curvature="0" id="path3743-2-6-7-2" d="m 184.26311,275.5655 c -25.40128,0 -25.40128,0 -25.40128,0" style="fill:none;stroke:#ffffff;stroke-width:1.5;stroke-linecap:butt;stroke-linejoin:round;stroke-miterlimit:4;stroke-dasharray:none;stroke-opacity:1"/>
      <path inkscape:connector-curvature="0" id="path3743-52-5-9" d="m 179.81125,270.79259 c -25.40129,0 -25.40129,0 -25.40129,0" style="fill:none;stroke:#ffffff;stroke-width:1.5;stroke-linecap:butt;stroke-linejoin:round;stroke-miterlimit:4;stroke-dasharray:none;stroke-opacity:1"/>
      <path inkscape:connector-curvature="0" id="path3743-2-0-9-4" d="m 175.30725,265.99361 c -25.40128,0 -25.40128,0 -25.40128,0" style="fill:none;stroke:#ffffff;stroke-width:1.5;stroke-linecap:butt;stroke-linejoin:round;stroke-miterlimit:4;stroke-dasharray:none;stroke-opacity:1"/>
      <path style="fill:none;stroke:#ffffff;stroke-width:1.5;stroke-linecap:butt;stroke-linejoin:round;stroke-miterlimit:4;stroke-dasharray:none;stroke-opacity:1" d="m 6.2628724,205.31845 c 285.7188076,0 285.7188076,0 285.7188076,0" id="path80" inkscape:connector-curvature="0"/>
      <path sodipodi:nodetypes="ccc" inkscape:connector-curvature="0" id="path363" d="m 199.98707,201.55124 -0.0147,-12.34625 v 0" style="fill:none;stroke:#ffffff;stroke-width:1.5;stroke-linecap:butt;stroke-linejoin:round;stroke-miterlimit:4;stroke-dasharray:none;stroke-opacity:1"/>
      <path sodipodi:nodetypes="ccccc" inkscape:connector-curvature="0" id="path365" d="m 200.07891,191.69077 c 0.87462,-2.15683 2.08451,-2.21821 3.3044,-2.21706 l 17.16135,-0.13436 v 0 c 0.84348,0.0446 1.67854,0.10119 1.91864,1.00775" style="fill:none;stroke:#ffffff;stroke-width:1.5;stroke-linecap:butt;stroke-linejoin:round;stroke-miterlimit:4;stroke-dasharray:none;stroke-opacity:1"/>
      <path inkscape:connector-curvature="0" id="path373" d="m 6.2628724,184.99915 c 285.7188076,0 285.7188076,0 285.7188076,0" style="fill:none;stroke:#ffffff;stroke-width:1.5;stroke-linecap:butt;stroke-linejoin:round;stroke-miterlimit:4;stroke-dasharray:none;stroke-opacity:1"/>
      <g style="stroke:#ffffff;stroke-width:1.5;stroke-linejoin:round;stroke-miterlimit:4;stroke-dasharray:none;stroke-opacity:1" transform="translate(0.52916667,2.1166667)" id="g2556">
        <path style="fill:none;stroke:#ffffff;stroke-width:1.5;stroke-linecap:butt;stroke-linejoin:round;stroke-miterlimit:4;stroke-dasharray:none;stroke-opacity:1" d="m 70.517273,259.40633 c -12.058891,0.29733 -8.46504,-30.22405 -17.978484,-30.48965" id="path4317-1-2" inkscape:connector-curvature="0" sodipodi:nodetypes="cc"/>
        <path sodipodi:nodetypes="ccc" inkscape:connector-curvature="0" id="path2529" d="m 70.517273,259.40633 c 11.03201,0.10898 3.698085,-15.28293 16.459169,-14.83539 l 23.548618,-0.0442" style="fill:none;stroke:#ffffff;stroke-width:1.5;stroke-linecap:butt;stroke-linejoin:round;stroke-miterlimit:4;stroke-dasharray:none;stroke-opacity:1"/>
      </g>
      <g style="stroke:#ffffff;stroke-width:1.5;stroke-linejoin:round;stroke-miterlimit:4;stroke-dasharray:none;stroke-opacity:1" transform="translate(-3.648551,6.9156468)" id="g2564">
        <path sodipodi:nodetypes="cc" inkscape:connector-curvature="0" id="path2558" d="m 70.517273,259.40633 c -12.058891,0.29733 -8.46504,-30.22405 -17.978484,-30.48965" style="fill:none;stroke:#ffffff;stroke-width:1.5;stroke-linecap:butt;stroke-linejoin:round;stroke-miterlimit:4;stroke-dasharray:none;stroke-opacity:1"/>
        <path style="fill:none;stroke:#ffffff;stroke-width:1.5;stroke-linecap:butt;stroke-linejoin:round;stroke-miterlimit:4;stroke-dasharray:none;stroke-opacity:1" d="m 70.517273,259.40633 c 11.03201,0.10898 4.161106,-15.24986 16.75642,-14.812 l 27.995877,-0.001" id="path2560" inkscape:connector-curvature="0" sodipodi:nodetypes="ccc"/>
      </g>
      <g style="stroke:#ffffff;stroke-width:1.5;stroke-linejoin:round;stroke-miterlimit:4;stroke-dasharray:none;stroke-opacity:1" id="g2572" transform="translate(-7.8818846,11.678148)">
        <path style="fill:none;stroke:#ffffff;stroke-width:1.5;stroke-linecap:butt;stroke-linejoin:round;stroke-miterlimit:4;stroke-dasharray:none;stroke-opacity:1" d="m 70.517273,259.40633 c -12.058891,0.29733 -8.46504,-30.22405 -17.978484,-30.48965" id="path2566" inkscape:connector-curvature="0" sodipodi:nodetypes="cc"/>
        <path sodipodi:nodetypes="ccc" inkscape:connector-curvature="0" id="path2568" d="m 70.517273,259.40633 c 11.03201,0.10898 5.12022,-14.72069 18.138146,-14.72247 l 30.313761,0.0117" style="fill:none;stroke:#ffffff;stroke-width:1.5;stroke-linecap:butt;stroke-linejoin:round;stroke-miterlimit:4;stroke-dasharray:none;stroke-opacity:1"/>
      </g>
      <path sodipodi:nodetypes="cc" style="fill:none;stroke:#ffffff;stroke-width:1.5;stroke-linecap:butt;stroke-linejoin:round;stroke-miterlimit:4;stroke-dasharray:none;stroke-opacity:1" d="M 6.2621514,213.2583 H 87.550873" id="path263" inkscape:connector-curvature="0"/>
      <g style="stroke:#ffffff;stroke-width:0.80422086;stroke-linejoin:round;stroke-miterlimit:4;stroke-dasharray:none;stroke-opacity:1" transform="matrix(2.3171425,0,0,1.5013403,-25.69501,-146.79339)" id="g274">
        <path style="fill:none;stroke:#ffffff;stroke-width:0.80422086;stroke-linecap:butt;stroke-linejoin:round;stroke-miterlimit:4;stroke-dasharray:none;stroke-opacity:1" d="m 18.220269,231.57357 c -0.175214,0.16254 0,0 0,0 8.674325,-7.94577 8.942646,-8.42364 9.103148,-7.10375 0.0047,2.38306 0.01002,4.91024 0.01511,7.2933" id="path334" inkscape:connector-curvature="0" sodipodi:nodetypes="cccc"/>
      </g>
      <path inkscape:transform-center-y="-0.09408752" inkscape:transform-center-x="-0.18547473" style="fill:none;stroke:#ffffff;stroke-width:1.5;stroke-linecap:butt;stroke-linejoin:round;stroke-miterlimit:4;stroke-dasharray:none;stroke-opacity:1" d="m 95.721131,189.16891 v 0 l 0.0023,1.21883" id="path297" inkscape:connector-curvature="0" sodipodi:nodetypes="ccc"/>
      <g style="stroke:#ffffff;stroke-width:0.80422086;stroke-linejoin:round;stroke-miterlimit:4;stroke-dasharray:none;stroke-opacity:1" id="g305" transform="matrix(2.3171425,0,0,1.5013403,-4.2681066,-146.79339)">
        <path sodipodi:nodetypes="cccc" inkscape:connector-curvature="0" id="path303" d="m 18.220269,231.57357 c -0.175214,0.16254 0,0 0,0 8.674325,-7.94577 8.942646,-8.42364 9.103148,-7.10375 0.0047,2.38306 0.01002,4.91024 0.01511,7.2933" style="fill:none;stroke:#ffffff;stroke-width:0.80422086;stroke-linecap:butt;stroke-linejoin:round;stroke-miterlimit:4;stroke-dasharray:none;stroke-opacity:1"/>
      </g>
      <path sodipodi:nodetypes="ccc" inkscape:connector-curvature="0" id="path307" d="m 95.637468,191.20422 v 0 l 3.47e-4,9.9555" style="fill:none;stroke:#ffffff;stroke-width:1.5;stroke-linecap:butt;stroke-linejoin:round;stroke-miterlimit:4;stroke-dasharray:none;stroke-opacity:1" inkscape:transform-center-x="-0.027608918" inkscape:transform-center-y="-0.76851075"/>
      <path sodipodi:nodetypes="cccsccsccc" style="fill:none;stroke:#ffffff;stroke-width:1.5;stroke-linecap:butt;stroke-linejoin:round;stroke-miterlimit:4;stroke-dasharray:none;stroke-opacity:1" d="m 161.97226,200.15349 c -0.0858,0.58222 -0.53866,1.14589 -1.22078,1.14084 l -18.5993,9.2e-4 c -1.81163,0.0525 -2.47874,-0.47346 -2.57581,-1.32912 -0.006,-0.0511 -0.008,-4.42756 -0.008,-4.42756 m 0,0 c 0,0 0.002,-4.80071 0.008,-4.8518 0.0971,-0.85565 0.76418,-1.38165 2.57581,-1.32911 l 18.5993,9.2e-4 c 0.68212,-0.005 1.13493,0.55862 1.22078,1.14084" id="path311" inkscape:connector-curvature="0"/>
      <path inkscape:connector-curvature="0" id="path319" d="m 260.7483,195.53857 c 0,0 0.002,-4.80071 0.008,-4.8518 0.0971,-0.85565 0.76418,-1.38165 2.57581,-1.32911 l 12.2493,9.2e-4 c 0.68212,-0.005 1.73712,0.50015 2.29654,1.35131 0.12287,0.18758 4.35709,7.61192 4.65759,8.16356 0.79496,1.45936 0.19066,2.51087 -0.60413,2.42088 l -18.5993,9.2e-4 c -1.81163,0.0525 -2.47874,-0.47346 -2.57581,-1.32912 -0.006,-0.0511 -0.008,-4.42756 -0.008,-4.42756" style="fill:none;stroke:#ffffff;stroke-width:1.5;stroke-linecap:butt;stroke-linejoin:round;stroke-miterlimit:4;stroke-dasharray:none;stroke-opacity:1" sodipodi:nodetypes="cscccsccsc"/>
      <path inkscape:connector-curvature="0" id="path1022" d="M 6.2621515,218.02083 H 94.430045" style="fill:none;stroke:#ffffff;stroke-width:1.5;stroke-linecap:butt;stroke-linejoin:round;stroke-miterlimit:4;stroke-dasharray:none;stroke-opacity:1" sodipodi:nodetypes="cc"/>
      <path sodipodi:nodetypes="cc" style="fill:none;stroke:#ffffff;stroke-width:1.5;stroke-linecap:butt;stroke-linejoin:round;stroke-miterlimit:4;stroke-dasharray:none;stroke-opacity:1" d="M 6.2621517,222.78337 H 99.457132" id="path1024" inkscape:connector-curvature="0"/>
      <path inkscape:connector-curvature="0" id="path1042" d="M 6.2621514,289.98796 H 87.550873" style="fill:none;stroke:#ffffff;stroke-width:1.5;stroke-linecap:butt;stroke-linejoin:round;stroke-miterlimit:4;stroke-dasharray:none;stroke-opacity:1" sodipodi:nodetypes="cc"/>
      <path sodipodi:nodetypes="cc" style="fill:none;stroke:#ffffff;stroke-width:1.5;stroke-linecap:butt;stroke-linejoin:round;stroke-miterlimit:4;stroke-dasharray:none;stroke-opacity:1" d="M 6.2621515,285.22543 H 94.430045" id="path1044" inkscape:connector-curvature="0"/>
      <path inkscape:connector-curvature="0" id="path1046" d="M 6.2621517,280.46289 H 99.457132" style="fill:none;stroke:#ffffff;stroke-width:1.5;stroke-linecap:butt;stroke-linejoin:round;stroke-miterlimit:4;stroke-dasharray:none;stroke-opacity:1" sodipodi:nodetypes="cc"/>
      <path style="fill:none;stroke:#ffffff;stroke-width:1.5;stroke-linecap:butt;stroke-linejoin:round;stroke-miterlimit:4;stroke-dasharray:none;stroke-opacity:1" d="m 100.12028,289.97548 c 25.4012,0 25.4012,0 25.4012,0" id="path1048" inkscape:connector-curvature="0"/>
      <path style="fill:none;stroke:#ffffff;stroke-width:1.5;stroke-linecap:butt;stroke-linejoin:round;stroke-miterlimit:4;stroke-dasharray:none;stroke-opacity:1" d="m 197.73601,213.19177 c -25.40127,0 -25.40127,0 -25.40127,0" id="path1050" inkscape:connector-curvature="0"/>
      <path style="fill:none;stroke:#ffffff;stroke-width:1.5;stroke-linecap:butt;stroke-linejoin:round;stroke-miterlimit:4;stroke-dasharray:none;stroke-opacity:1" d="m 193.23258,217.99075 c -25.40139,0 -25.40139,0 -25.40139,0" id="path1092" inkscape:connector-curvature="0"/>
      <path style="fill:none;stroke:#ffffff;stroke-width:1.5;stroke-linecap:butt;stroke-linejoin:round;stroke-miterlimit:4;stroke-dasharray:none;stroke-opacity:1" d="m 188.61123,222.78973 c -25.40139,0 -25.40139,0 -25.40139,0" id="path1094" inkscape:connector-curvature="0"/>
      <path style="fill:none;stroke:#ffffff;stroke-width:1.5;stroke-linecap:butt;stroke-linejoin:round;stroke-miterlimit:4;stroke-dasharray:none;stroke-opacity:1" d="m 183.98988,227.58872 c -25.4014,0 -25.4014,0 -25.4014,0" id="path1096" inkscape:connector-curvature="0"/>
      <path style="fill:none;stroke:#ffffff;stroke-width:1.5;stroke-linecap:butt;stroke-linejoin:round;stroke-miterlimit:4;stroke-dasharray:none;stroke-opacity:1" d="m 179.66352,232.3877 c -25.40142,0 -25.40142,0 -25.40142,0" id="path1098" inkscape:connector-curvature="0"/>
      <path style="fill:none;stroke:#ffffff;stroke-width:1.5;stroke-linecap:butt;stroke-linejoin:round;stroke-miterlimit:4;stroke-dasharray:none;stroke-opacity:1" d="m 175.11589,237.18668 c -25.4014,0 -25.4014,0 -25.4014,0" id="path1100" inkscape:connector-curvature="0"/>
      <path style="fill:none;stroke:#ffffff;stroke-width:1.5;stroke-linecap:butt;stroke-linejoin:round;stroke-miterlimit:4;stroke-dasharray:none;stroke-opacity:1" d="m 170.60516,241.98566 c -43.23628,0 -43.23628,0 -43.23628,0" id="path1102" inkscape:connector-curvature="0"/>
      <path style="fill:none;stroke:#ffffff;stroke-width:1.5;stroke-linecap:butt;stroke-linejoin:round;stroke-miterlimit:4;stroke-dasharray:none;stroke-opacity:1" d="m 104.59823,285.1765 c 25.40144,0 25.40144,0 25.40144,0" id="path1110" inkscape:connector-curvature="0"/>
      <path style="fill:none;stroke:#ffffff;stroke-width:1.5;stroke-linecap:butt;stroke-linejoin:round;stroke-miterlimit:4;stroke-dasharray:none;stroke-opacity:1" d="m 109.11533,280.41663 c 25.40142,0 25.40142,0 25.40142,0" id="path1112" inkscape:connector-curvature="0"/>
      <path style="fill:none;stroke:#ffffff;stroke-width:1.5;stroke-linecap:butt;stroke-linejoin:round;stroke-miterlimit:4;stroke-dasharray:none;stroke-opacity:1" d="m 113.71061,275.5655 c 25.40142,0 25.40142,0 25.40142,0" id="path1114" inkscape:connector-curvature="0"/>
      <path style="fill:none;stroke:#ffffff;stroke-width:1.5;stroke-linecap:butt;stroke-linejoin:round;stroke-miterlimit:4;stroke-dasharray:none;stroke-opacity:1" d="m 118.16249,270.79259 c 25.40144,0 25.40144,0 25.40144,0" id="path1116" inkscape:connector-curvature="0"/>
      <path style="fill:none;stroke:#ffffff;stroke-width:1.5;stroke-linecap:butt;stroke-linejoin:round;stroke-miterlimit:4;stroke-dasharray:none;stroke-opacity:1" d="m 122.66652,265.99361 c 25.40142,0 25.40142,0 25.40142,0" id="path1118" inkscape:connector-curvature="0"/>
      <path style="fill:none;stroke:#ffffff;stroke-width:1.5;stroke-linecap:butt;stroke-linejoin:round;stroke-miterlimit:4;stroke-dasharray:none;stroke-opacity:1" d="m 131.93492,256.19908 c 34.10417,0 34.10417,0 34.10417,0" id="path1160" inkscape:connector-curvature="0"/>
      <path inkscape:connector-curvature="0" id="path1166" d="m 170.60516,261.07181 c -43.23628,0 -43.23628,0 -43.23628,0" style="fill:none;stroke:#ffffff;stroke-width:1.5;stroke-linecap:butt;stroke-linejoin:round;stroke-miterlimit:4;stroke-dasharray:none;stroke-opacity:1"/>
      <path style="fill:none;stroke:#ffffff;stroke-width:1.5;stroke-linecap:butt;stroke-linejoin:round;stroke-miterlimit:4;stroke-dasharray:none;stroke-opacity:1" d="m 6.2621514,270.70027 c 23.0803516,0 23.0803516,0 23.0803516,0" id="path1105" inkscape:connector-curvature="0"/>
      <path style="fill:none;stroke:#ffffff;stroke-width:1.5;stroke-linecap:butt;stroke-linejoin:round;stroke-miterlimit:4;stroke-dasharray:none;stroke-opacity:1" d="m 79.12041,275.2484 c 24.70231,0 24.70231,0 24.70231,0" id="path1107" inkscape:connector-curvature="0"/>
      <path style="fill:none;stroke:#ffffff;stroke-width:1.5;stroke-linecap:butt;stroke-linejoin:round;stroke-miterlimit:4;stroke-dasharray:none;stroke-opacity:1" d="m 82.538482,270.44942 c 23.683688,0 23.683688,0 23.683688,0" id="path1109" inkscape:connector-curvature="0"/>
      <path style="fill:none;stroke:#ffffff;stroke-width:1.5;stroke-linecap:butt;stroke-linejoin:round;stroke-miterlimit:4;stroke-dasharray:none;stroke-opacity:1" d="m 85.758153,265.65044 c 22.863517,0 22.863517,0 22.863517,0" id="path1111" inkscape:connector-curvature="0"/>
      <path style="fill:none;stroke:#ffffff;stroke-width:1.5;stroke-linecap:butt;stroke-linejoin:round;stroke-miterlimit:4;stroke-dasharray:none;stroke-opacity:1" d="m 291.68073,227.54589 c -23.08035,0 -23.08035,0 -23.08035,0" id="path1158" inkscape:connector-curvature="0"/>
      <path style="fill:none;stroke:#ffffff;stroke-width:1.5;stroke-linecap:butt;stroke-linejoin:round;stroke-miterlimit:4;stroke-dasharray:none;stroke-opacity:1" d="m 291.68073,232.34487 c -23.08035,0 -23.08035,0 -23.08035,0" id="path1161" inkscape:connector-curvature="0"/>
      <path style="fill:none;stroke:#ffffff;stroke-width:1.5;stroke-linecap:butt;stroke-linejoin:round;stroke-miterlimit:4;stroke-dasharray:none;stroke-opacity:1" d="m 291.68073,237.14385 c -23.08035,0 -23.08035,0 -23.08035,0" id="path1163" inkscape:connector-curvature="0"/>
      <path style="fill:none;stroke:#ffffff;stroke-width:1.5;stroke-linecap:butt;stroke-linejoin:round;stroke-miterlimit:4;stroke-dasharray:none;stroke-opacity:1" d="m 291.68073,241.94283 c -23.08035,0 -23.08035,0 -23.08035,0" id="path1165" inkscape:connector-curvature="0"/>
      <path style="fill:none;stroke:#ffffff;stroke-width:1.5;stroke-linecap:butt;stroke-linejoin:round;stroke-miterlimit:4;stroke-dasharray:none;stroke-opacity:1" d="m 291.64267,246.78859 -31.14256,-0.0468 c -11.87495,0.0842 -6.25945,-15.0646 -15.62531,-15.70846" id="path1167" inkscape:connector-curvature="0" sodipodi:nodetypes="ccc"/>
      <path style="fill:none;stroke:#ffffff;stroke-width:1.5;stroke-linecap:butt;stroke-linejoin:round;stroke-miterlimit:4;stroke-dasharray:none;stroke-opacity:1" d="m 291.68073,251.5408 -26.96981,-0.0165 c -11.90802,0.10074 -6.29252,-15.04806 -15.65837,-15.69192" id="path1169" inkscape:connector-curvature="0" sodipodi:nodetypes="ccc"/>
      <path style="fill:none;stroke:#ffffff;stroke-width:1.5;stroke-linecap:butt;stroke-linejoin:round;stroke-miterlimit:4;stroke-dasharray:none;stroke-opacity:1" d="m 291.675,256.29301 -22.56823,0.005 c -12.07051,0.0893 -6.45501,-15.05945 -15.82087,-15.70331" id="path1171" inkscape:connector-curvature="0" sodipodi:nodetypes="ccc"/>
      <path style="fill:none;stroke:#ffffff;stroke-width:1.5;stroke-linecap:butt;stroke-linejoin:round;stroke-miterlimit:4;stroke-dasharray:none;stroke-opacity:1" d="m 291.68073,261.13876 c -23.08035,0 -23.08035,0 -23.08035,0" id="path1173" inkscape:connector-curvature="0"/>
      <path style="fill:none;stroke:#ffffff;stroke-width:1.5;stroke-linecap:butt;stroke-linejoin:round;stroke-miterlimit:4;stroke-dasharray:none;stroke-opacity:1" d="m 291.68073,265.93774 c -23.08035,0 -23.08035,0 -23.08035,0" id="path1175" inkscape:connector-curvature="0"/>
      <path style="fill:none;stroke:#ffffff;stroke-width:1.5;stroke-linecap:butt;stroke-linejoin:round;stroke-miterlimit:4;stroke-dasharray:none;stroke-opacity:1" d="m 291.68073,275.53571 c -23.08035,0 -23.08035,0 -23.08035,0" id="path1177" inkscape:connector-curvature="0"/>
      <path style="fill:none;stroke:#ffffff;stroke-width:1.5;stroke-linecap:butt;stroke-linejoin:round;stroke-miterlimit:4;stroke-dasharray:none;stroke-opacity:1" d="m 218.8222,227.51374 c -24.70245,0 -24.70245,0 -24.70245,0" id="path1179" inkscape:connector-curvature="0"/>
      <path style="fill:none;stroke:#ffffff;stroke-width:1.5;stroke-linecap:butt;stroke-linejoin:round;stroke-miterlimit:4;stroke-dasharray:none;stroke-opacity:1" d="m 215.40411,232.31272 c -23.68382,0 -23.68382,0 -23.68382,0" id="path1181" inkscape:connector-curvature="0"/>
      <path style="fill:none;stroke:#ffffff;stroke-width:1.5;stroke-linecap:butt;stroke-linejoin:round;stroke-miterlimit:4;stroke-dasharray:none;stroke-opacity:1" d="m 212.18442,237.1117 c -22.86364,0 -22.86364,0 -22.86364,0" id="path1183" inkscape:connector-curvature="0"/>
      <path style="fill:none;stroke:#ffffff;stroke-width:1.5;stroke-linecap:butt;stroke-linejoin:round;stroke-miterlimit:4;stroke-dasharray:none;stroke-opacity:1" d="m 210.82735,241.91069 c -22.70632,0 -22.70632,0 -22.70632,0" id="path1185" inkscape:connector-curvature="0"/>
      <path style="fill:none;stroke:#ffffff;stroke-width:1.5;stroke-linecap:butt;stroke-linejoin:round;stroke-miterlimit:4;stroke-dasharray:none;stroke-opacity:1" d="m 211.20153,261.10661 c -23.0805,0 -23.0805,0 -23.0805,0" id="path1187" inkscape:connector-curvature="0"/>
      <g style="stroke:#ffffff;stroke-width:1.5;stroke-linejoin:round;stroke-miterlimit:4;stroke-dasharray:none;stroke-opacity:1" id="g1193" transform="matrix(-1,0,0,1,297.41372,2.1166667)">
        <path sodipodi:nodetypes="cc" inkscape:connector-curvature="0" id="path1189" d="m 70.517273,259.40633 c -12.058891,0.29733 -8.46504,-30.22405 -17.978484,-30.48965" style="fill:none;stroke:#ffffff;stroke-width:1.5;stroke-linecap:butt;stroke-linejoin:round;stroke-miterlimit:4;stroke-dasharray:none;stroke-opacity:1"/>
        <path style="fill:none;stroke:#ffffff;stroke-width:1.5;stroke-linecap:butt;stroke-linejoin:round;stroke-miterlimit:4;stroke-dasharray:none;stroke-opacity:1" d="m 70.517273,259.40633 c 11.03201,0.10898 3.698085,-15.28293 16.459169,-14.83539 l 23.548618,-0.0442" id="path1191" inkscape:connector-curvature="0" sodipodi:nodetypes="ccc"/>
      </g>
      <g style="stroke:#ffffff;stroke-width:1.5;stroke-linejoin:round;stroke-miterlimit:4;stroke-dasharray:none;stroke-opacity:1" id="g1199" transform="matrix(-1,0,0,1,301.59144,6.9156468)">
        <path style="fill:none;stroke:#ffffff;stroke-width:1.5;stroke-linecap:butt;stroke-linejoin:round;stroke-miterlimit:4;stroke-dasharray:none;stroke-opacity:1" d="m 70.517273,259.40633 c -12.058891,0.29733 -8.46504,-30.22405 -17.978484,-30.48965" id="path1195" inkscape:connector-curvature="0" sodipodi:nodetypes="cc"/>
        <path sodipodi:nodetypes="ccc" inkscape:connector-curvature="0" id="path1197" d="m 70.517273,259.40633 c 11.03201,0.10898 4.161106,-15.24986 16.75642,-14.812 l 27.995877,-0.001" style="fill:none;stroke:#ffffff;stroke-width:1.5;stroke-linecap:butt;stroke-linejoin:round;stroke-miterlimit:4;stroke-dasharray:none;stroke-opacity:1"/>
      </g>
      <g style="stroke:#ffffff;stroke-width:1.5;stroke-linejoin:round;stroke-miterlimit:4;stroke-dasharray:none;stroke-opacity:1" transform="matrix(-1,0,0,1,305.82477,11.678148)" id="g1205">
        <path sodipodi:nodetypes="cc" inkscape:connector-curvature="0" id="path1201" d="m 70.517273,259.40633 c -12.058891,0.29733 -8.46504,-30.22405 -17.978484,-30.48965" style="fill:none;stroke:#ffffff;stroke-width:1.5;stroke-linecap:butt;stroke-linejoin:round;stroke-miterlimit:4;stroke-dasharray:none;stroke-opacity:1"/>
        <path style="fill:none;stroke:#ffffff;stroke-width:1.5;stroke-linecap:butt;stroke-linejoin:round;stroke-miterlimit:4;stroke-dasharray:none;stroke-opacity:1" d="m 70.517273,259.40633 c 11.03201,0.10898 5.12022,-14.72069 18.138146,-14.72247 l 30.313761,0.0117" id="path1203" inkscape:connector-curvature="0" sodipodi:nodetypes="ccc"/>
      </g>
      <path inkscape:connector-curvature="0" id="path1207" d="M 291.68073,213.2583 H 210.39169" style="fill:none;stroke:#ffffff;stroke-width:1.5;stroke-linecap:butt;stroke-linejoin:round;stroke-miterlimit:4;stroke-dasharray:none;stroke-opacity:1" sodipodi:nodetypes="cc"/>
      <path sodipodi:nodetypes="cc" style="fill:none;stroke:#ffffff;stroke-width:1.5;stroke-linecap:butt;stroke-linejoin:round;stroke-miterlimit:4;stroke-dasharray:none;stroke-opacity:1" d="M 291.68073,218.02083 H 203.51248" id="path1209" inkscape:connector-curvature="0"/>
      <path inkscape:connector-curvature="0" id="path1211" d="M 291.68073,222.78337 H 198.48537" style="fill:none;stroke:#ffffff;stroke-width:1.5;stroke-linecap:butt;stroke-linejoin:round;stroke-miterlimit:4;stroke-dasharray:none;stroke-opacity:1" sodipodi:nodetypes="cc"/>
      <path sodipodi:nodetypes="cc" style="fill:none;stroke:#ffffff;stroke-width:1.5;stroke-linecap:butt;stroke-linejoin:round;stroke-miterlimit:4;stroke-dasharray:none;stroke-opacity:1" d="M 291.68073,289.98796 H 210.39169" id="path1213" inkscape:connector-curvature="0"/>
      <path inkscape:connector-curvature="0" id="path1215" d="M 291.68073,285.22543 H 203.51248" style="fill:none;stroke:#ffffff;stroke-width:1.5;stroke-linecap:butt;stroke-linejoin:round;stroke-miterlimit:4;stroke-dasharray:none;stroke-opacity:1" sodipodi:nodetypes="cc"/>
      <path sodipodi:nodetypes="cc" style="fill:none;stroke:#ffffff;stroke-width:1.5;stroke-linecap:butt;stroke-linejoin:round;stroke-miterlimit:4;stroke-dasharray:none;stroke-opacity:1" d="M 291.68073,280.46289 H 198.48537" id="path1217" inkscape:connector-curvature="0"/>
      <path inkscape:connector-curvature="0" id="path1219" d="m 197.82221,289.97548 c -25.40134,0 -25.40134,0 -25.40134,0" style="fill:none;stroke:#ffffff;stroke-width:1.5;stroke-linecap:butt;stroke-linejoin:miter;stroke-miterlimit:4;stroke-dasharray:none;stroke-opacity:1"/>
      <path inkscape:connector-curvature="0" id="path1221" d="m 291.68073,270.70027 c -23.08035,0 -23.08035,0 -23.08035,0" style="fill:none;stroke:#ffffff;stroke-width:1.5;stroke-linecap:butt;stroke-linejoin:round;stroke-miterlimit:4;stroke-dasharray:none;stroke-opacity:1"/>
      <path inkscape:connector-curvature="0" id="path1223" d="m 218.8222,275.2484 c -24.70245,0 -24.70245,0 -24.70245,0" style="fill:none;stroke:#ffffff;stroke-width:1.5;stroke-linecap:butt;stroke-linejoin:round;stroke-miterlimit:4;stroke-dasharray:none;stroke-opacity:1"/>
      <path inkscape:connector-curvature="0" id="path1225" d="m 215.40411,270.44942 c -23.68382,0 -23.68382,0 -23.68382,0" style="fill:none;stroke:#ffffff;stroke-width:1.5;stroke-linecap:butt;stroke-linejoin:round;stroke-miterlimit:4;stroke-dasharray:none;stroke-opacity:1"/>
      <path inkscape:connector-curvature="0" id="path1227" d="m 212.18442,265.65044 c -22.86364,0 -22.86364,0 -22.86364,0" style="fill:none;stroke:#ffffff;stroke-width:1.5;stroke-linecap:butt;stroke-linejoin:round;stroke-miterlimit:4;stroke-dasharray:none;stroke-opacity:1"/>
    </g>
  </g>
</svg>
